<?xml version="1.0" standalone="no"?>
<!DOCTYPE svg PUBLIC "-//W3C//DTD SVG 20010904//EN"
 "http://www.w3.org/TR/2001/REC-SVG-20010904/DTD/svg10.dtd">
<svg version="1.0" xmlns="http://www.w3.org/2000/svg"
 width="512.000000pt" height="512.000000pt" viewBox="0 0 512.000000 512.000000"
 preserveAspectRatio="xMidYMid meet">

<g transform="translate(0.000000,512.000000) scale(0.100000,-0.100000)"
fill="#000000" stroke="none">
<path d="M78 5099 c-23 -12 -46 -35 -58 -59 -19 -37 -20 -58 -20 -398 0 -398
3 -417 63 -481 108 -114 298 -89 369 48 l28 53 0 429 0 429 -172 0 c-152 -1
-177 -3 -210 -21z"/>
<path d="M762 4688 c3 -424 3 -434 25 -474 27 -51 80 -98 128 -114 20 -7 65
-10 100 -8 108 7 184 76 205 187 6 31 10 222 10 447 l0 394 -235 0 -236 0 3
-432z"/>
<path d="M1532 4677 l3 -443 28 -42 c41 -63 97 -95 172 -100 35 -2 80 1 100 8
48 16 101 63 128 114 22 40 22 50 25 474 l3 432 -231 0 -231 0 3 -443z"/>
<path d="M2290 4693 c0 -394 2 -431 19 -468 53 -115 192 -168 306 -116 51 23
111 89 124 138 7 24 11 192 11 456 l0 417 -230 0 -230 0 0 -427z"/>
<path d="M3050 4704 c0 -287 4 -429 12 -455 6 -22 27 -58 47 -80 104 -122 300
-101 373 40 l28 53 0 378 c0 375 0 377 -23 411 -41 61 -70 69 -264 69 l-173 0
0 -416z"/>
<path d="M568 3906 c-120 -105 -342 -147 -501 -92 l-67 23 0 -1056 c0 -1178
-5 -1099 69 -1148 l34 -23 922 0 922 0 6 68 c3 37 13 87 21 111 14 38 16 133
16 735 0 672 1 692 20 724 11 18 34 41 52 52 32 19 52 20 459 20 l426 0 34
-23 c59 -39 69 -73 69 -234 0 -115 3 -143 14 -143 7 0 19 13 26 29 16 39 90
115 148 152 60 38 160 69 223 69 l49 0 0 331 0 331 -22 -7 c-88 -27 -132 -35
-203 -35 -131 0 -226 32 -333 112 l-52 39 -43 -34 c-192 -156 -485 -156 -675
0 l-43 35 -52 -40 c-104 -79 -201 -112 -332 -112 -128 0 -246 41 -332 115 -23
19 -44 35 -48 35 -4 0 -25 -16 -48 -35 -86 -74 -204 -115 -331 -115 -129 0
-231 34 -332 111 -28 22 -53 39 -55 39 -2 -1 -21 -16 -41 -34z m912 -632 c31
-34 39 -51 45 -95 3 -30 5 -265 3 -524 -3 -449 -4 -472 -23 -504 -11 -19 -33
-43 -48 -55 -28 -20 -39 -21 -456 -24 l-427 -3 -34 23 c-18 13 -43 36 -54 51
-21 28 -21 39 -24 541 l-3 512 23 43 c44 84 33 82 526 79 l433 -3 39 -41z"/>
<path d="M760 2695 l0 -325 235 0 235 0 0 325 0 325 -235 0 -235 0 0 -325z"/>
<path d="M2290 2758 l0 -261 188 185 c125 124 201 191 230 203 l42 19 0 58 0
58 -230 0 -230 0 0 -262z"/>
<path d="M3411 2852 c-64 -32 -75 -59 -81 -189 l-5 -116 -70 -29 c-38 -16 -78
-32 -88 -35 -14 -4 -38 14 -90 64 -83 82 -102 93 -154 93 -58 0 -110 -39 -269
-201 -150 -153 -174 -186 -174 -244 0 -50 12 -69 93 -152 50 -52 68 -76 64
-90 -3 -10 -19 -49 -35 -88 l-29 -70 -116 -5 c-130 -6 -157 -17 -189 -81 -16
-30 -18 -65 -18 -274 0 -209 2 -244 18 -274 32 -64 59 -75 189 -81 l116 -5 29
-70 c16 -38 32 -78 35 -88 4 -14 -14 -38 -64 -90 -39 -40 -76 -82 -82 -94 -15
-30 -14 -89 3 -121 17 -32 342 -355 373 -371 62 -31 126 -6 216 86 l69 70 86
-37 87 -38 5 -115 c6 -129 17 -157 81 -189 30 -16 65 -18 274 -18 209 0 244 2
274 18 64 32 75 60 81 189 l5 115 87 38 86 37 69 -70 c93 -95 155 -118 221
-83 32 17 355 342 371 373 31 62 6 126 -86 216 l-70 69 37 86 38 87 115 5
c129 6 157 17 189 81 16 30 18 65 18 274 0 209 -2 244 -18 274 -32 64 -60 75
-189 81 l-115 5 -38 87 -37 86 70 69 c92 90 117 154 86 216 -16 31 -339 356
-371 373 -32 17 -91 18 -121 3 -12 -6 -54 -43 -94 -82 -52 -50 -76 -68 -90
-64 -10 3 -49 19 -88 35 l-70 29 -5 116 c-6 130 -17 157 -81 189 -30 16 -65
18 -274 18 -209 0 -244 -2 -274 -18z m414 -887 c201 -51 348 -202 396 -405 43
-184 -16 -384 -153 -517 -111 -108 -227 -154 -383 -155 -153 0 -264 43 -374
146 -116 109 -172 236 -174 391 -2 264 155 474 403 539 73 19 211 20 285 1z"/>
<path d="M3606 1674 c-33 -10 -64 -31 -97 -64 -114 -114 -96 -289 40 -385 37
-26 53 -30 120 -33 63 -3 85 0 124 18 162 76 191 298 54 415 -41 36 -119 66
-166 64 -14 0 -48 -7 -75 -15z"/>
</g>
</svg>
